#!OML:ASF F:\VICON\USERDATA\Patient Classification 1\PLAYGROUND\JustinFriday\JustinFriday.ASF
:FULLY-SPECIFIED
:DEGREES
3176
root -13.6298 17.2984 8.46446 342.857 84.21 -20.3189
lowerback 11.3323 0.69689 -4.14872
upperback 5.71108 0.732953 -0.379764
thorax -0.424449 0.386808 1.85474
lowerneck 5.24656 -0.0493421 -9.88218
upperneck -0.0293419 -0.554171 6.1099
head -0.900308 -0.341002 3.78857
rclavicle 1.2921e-014 3.18055e-015
rhumerus -23.5716 -2.57587 -80.7274
rradius 37.5984
rwrist -12.6487
rhand -20.3757 -22.6014
rfingers 7.12502
rthumb 5.97709 -52.4971
lclavicle 1.2921e-014 3.18055e-015
lhumerus -24.0814 0.0318408 77.6404
lradius 45.8783
lwrist 3.38546
lhand -20.9596 -10.8465
lfingers 7.12502
lthumb 5.41331 19.0643
rfemur -34.4773 -1.85862 22.0463
rtibia 22.1647
rfoot -5.10414 -2.74716
rtoes -5.96759
lfemur 13.8986 2.22275 -22.5281
ltibia 11.0113
lfoot -14.8977 -12.1048
ltoes 15.2469
3177
root -13.4583 17.2924 8.4842 339.641 84.3156 -23.4447
lowerback 11.377 0.663638 -3.64422
upperback 5.79844 0.745057 -0.192507
thorax -0.358268 0.399282 1.76428
lowerneck 5.24261 -0.216908 -9.86856
upperneck -0.130201 -0.780539 5.77025
head -0.911677 -0.448004 3.67143
rclavicle 2.5842e-015 -5.56597e-015
rhumerus -23.4714 -2.37234 -80.5261
rradius 37.5489
rwrist -12.8782
rhand -20.1904 -22.5424
rfingers 7.12502
rthumb 6.15603 -52.4329
lclavicle 2.5842e-015 -5.56597e-015
lhumerus -24.4468 0.294917 77.8923
lradius 44.7213
lwrist 3.70095
lhand -20.6328 -9.83873
lfingers 7.12502
lthumb 5.72886 20.0638
rfemur -34.3174 -1.85212 22.4434
rtibia 22.8288
rfoot -3.67229 -2.20374
rtoes 11.0549
lfemur 14.5986 2.70891 -21.9758
ltibia 10.7631
lfoot -13.9571 -12.8368
ltoes 14.1683
3178
root -13.2703 17.3027 8.54725 333.546 84.4883 -29.2954
lowerback 11.4229 0.627856 -3.41389
upperback 5.9106 0.730606 0.0599501
thorax -0.266781 0.392804 1.89876
lowerneck 5.17926 -0.282364 -9.86419
upperneck -0.0537212 -0.8628 5.7464
head -0.868178 -0.489123 3.66237
rclavicle -1.09332e-014 -7.15625e-015
rhumerus -23.5357 -2.80842 -80.3779
rradius 37.4981
rwrist -12.5612
rhand -19.9264 -22.0719
rfingers 7.12502
rthumb 6.41088 -51.9549
lclavicle -1.09332e-014 -7.15625e-015
lhumerus -24.7398 1.05974 77.8142
lradius 43.1944
lwrist 3.07143
lhand -19.9552 -9.06866
lfingers 7.12502
lthumb 6.38308 20.8152
rfemur -33.6826 -0.969867 22.815
rtibia 23.3284
rfoot -2.84663 -2.52161
rtoes 13.0232
lfemur 15.228 3.66015 -20.6475
ltibia 11.1909
lfoot -12.7512 -14.912
ltoes 15.2437
3179
root -13.0865 17.3106 8.60649 328.01 84.8283 -34.6625
lowerback 11.5074 0.506491 -3.43116
upperback 5.93675 0.572776 0.361799
thorax -0.278356 0.310281 2.23979
lowerneck 5.137 -0.215736 -10.0303
upperneck 0.0729606 -0.780435 5.79139
head -0.826581 -0.449501 3.70768
rclavicle -3.57812e-015 4.77083e-015
rhumerus -23.5904 -3.46305 -80.043
rradius 37.3826
rwrist -12.0463
rhand -19.6949 -22.127
rfingers 7.12502
rthumb 6.63434 -52.0031
lclavicle -3.57812e-015 4.77083e-015
lhumerus -25.207 2.29395 77.8155
lradius 41.6254
lwrist 2.40136
lhand -19.6897 -8.47773
lfingers 7.12502
lthumb 6.63937 21.3982
rfemur -33.1301 -0.442845 23.1045
rtibia 23.7738
rfoot -1.86319 -2.69165
rtoes 15.1169
lfemur 15.6636 1.95925 -20.4654
ltibia 11.936
lfoot -11.8834 -14.3413
ltoes 16.0398
3180
root -12.9043 17.3026 8.65649 324.906 85.1157 -37.6257
lowerback 11.6369 0.423875 -3.61521
upperback 5.88889 0.442333 0.588217
thorax -0.390971 0.240626 2.59347
lowerneck 5.18531 -0.134461 -10.1582
upperneck 0.126713 -0.684589 5.79136
head -0.826264 -0.402584 3.731
rclavicle 1.25234e-014 1.66979e-014
rhumerus -23.6328 -3.6226 -79.7636
rradius 36.9542
rwrist -11.7944
rhand -19.1541 -21.5662
rfingers 7.12502
rthumb 7.15641 -51.4252
lclavicle 1.25234e-014 1.66979e-014
lhumerus -25.8812 3.78777 77.8699
lradius 40.0807
lwrist 1.88469
lhand -20.1628 -7.80696
lfingers 7.12502
lthumb 6.1826 22.0828
rfemur -32.6139 0.0272372 23.2093
rtibia 24.1558
rfoot -0.998973 -2.80329
rtoes 18.1078
lfemur 15.7951 1.15314 -20.3146
ltibia 13.0552
lfoot -10.9431 -14.443
ltoes 16.1513
3181
root -12.7186 17.3083 8.69232 324.867 85.2912 -37.6246
lowerback 11.6609 0.409539 -3.73139
upperback 5.79676 0.405853 0.660864
thorax -0.497925 0.22068 2.7386
lowerneck 5.51425 -0.111338 -10.4668
upperneck 0.0630479 -0.699872 6.04366
head -0.90575 -0.415737 3.88629
rclavicle -7.7526e-015 -5.56597e-015
rhumerus -23.8081 -3.08488 -79.7246
rradius 36.5911
rwrist -12.1562
rhand -18.8203 -20.8417
rfingers 7.12502
rthumb 7.47857 -50.6895
lclavicle -7.7526e-015 -5.56597e-015
lhumerus -26.5656 5.1358 77.7898
lradius 38.6241
lwrist 1.29039
lhand -20.2577 -6.50908
lfingers 7.12502
lthumb 6.09104 23.3834
rfemur -32.2107 1.24333 22.8148
rtibia 24.5175
rfoot -0.425636 -3.74283
rtoes 21.7202
lfemur 15.5541 0.886297 -20.2823
ltibia 14.441
lfoot -10.1023 -14.7764
ltoes 14.4312
3182
root -12.5378 17.3341 8.68644 322.231 85.4009 -40.5961
lowerback 11.3809 0.253982 -2.95537
upperback 5.64636 0.274941 0.67471
thorax -0.496863 0.167176 2.33073
lowerneck 5.57755 -0.186568 -9.93554
upperneck 0.0648934 -0.780374 5.49261
head -0.90774 -0.449327 3.58842
rclavicle -7.55382e-015 -9.54166e-015
rhumerus -23.8499 -3.36376 -79.6351
rradius 36.2929
rwrist -11.8514
rhand -18.6147 -20.7642
rfingers 7.12502
rthumb 7.67706 -50.6048
lclavicle -7.55382e-015 -9.54166e-015
lhumerus -26.9589 6.51008 77.4538
lradius 36.8113
lwrist 0.642827
lhand -19.8232 -6.74767
lfingers 7.12502
lthumb 6.51047 23.1323
rfemur -32.2833 1.61578 22.7488
rtibia 24.8604
rfoot 0.409892 -4.32286
rtoes 23.1078
lfemur 14.5606 0.318878 -20.2666
ltibia 16.2298
lfoot -9.05033 -14.7198
ltoes 11.8978
3183
root -12.3322 17.3494 8.76515 314.996 85.1681 -47.3693
lowerback 11.5927 0.285384 -2.86893
upperback 5.72785 0.332935 0.995405
thorax -0.531041 0.196347 2.60857
lowerneck 6.22475 -0.19494 -8.85789
upperneck -0.413509 -0.787127 4.65051
head -1.17545 -0.440487 3.0985
rclavicle -7.15625e-015 -1.55052e-014
rhumerus -23.8489 -4.53746 -79.4289
rradius 35.7157
rwrist -10.5651
rhand -18.1434 -20.8009
rfingers 7.12502
rthumb 8.13198 -50.6244
lclavicle -7.15625e-015 -1.55052e-014
lhumerus -27.6691 8.57483 77.0645
lradius 35.2407
lwrist -1.10806
lhand -19.5572 -6.70903
lfingers 7.12502
lthumb 6.76731 23.1628
rfemur -31.1977 2.9271 23.3119
rtibia 25.2588
rfoot 0.41928 -5.96202
rtoes 22.2248
lfemur 14.4995 0.771812 -18.8934
ltibia 18.2786
lfoot -7.03667 -16.1029
ltoes 12.6285
3184
root -12.1432 17.359 8.80806 307.199 85.0076 -54.8613
lowerback 11.9459 0.206566 -2.42983
upperback 5.6161 0.27003 1.25601
thorax -0.836228 0.175647 2.63884
lowerneck 14.6702 -1.43607 2.59426
upperneck -10.1921 -2.38092 -7.60377
head -5.60842 -0.66926 -2.6146
rclavicle 5.26779e-015 -2.38542e-015
rhumerus -24.0137 -5.30367 -79.1341
rradius 35.1178
rwrist -9.78556
rhand -17.275 -20.8859
rfingers 7.12502
rthumb 8.96998 -50.6752
lclavicle 5.26779e-015 -2.38542e-015
lhumerus -28.4376 9.75651 76.6762
lradius 33.5921
lwrist -1.89081
lhand -19.4144 -6.6299
lfingers 7.12502
lthumb 6.90515 23.2375
rfemur -30.429 3.62797 23.7827
rtibia 25.743
rfoot -0.343105 -7.53812
rtoes 25.9746
lfemur 14.0088 0.178968 -18.0497
ltibia 20.5903
lfoot -4.83265 -16.2814
ltoes 13.4565
3185
root -11.9627 17.3761 8.84474 302.36 85.0759 -59.5163
lowerback 12.2635 0.179819 -2.42356
upperback 5.48145 0.232795 1.50885
thorax -1.14644 0.159998 2.90369
lowerneck 6.12613 -0.183233 -8.99547
upperneck 0.196299 -0.770525 4.88242
head -0.961716 -0.442537 3.19685
rclavicle 4.87022e-015 1.35174e-014
rhumerus -24.2351 -5.62263 -78.8696
rradius 34.6972
rwrist -9.82798
rhand -16.9814 -21.0297
rfingers 7.12502
rthumb 9.25332 -50.8067
lclavicle 4.87022e-015 1.35174e-014
lhumerus -29.1167 10.7622 76.4784
lradius 31.9882
lwrist -2.09216
lhand -19.1964 -5.68333
lfingers 7.12502
lthumb 7.1156 24.1771
rfemur -29.9928 4.63492 23.6606
rtibia 26.5514
rfoot -2.35346 -8.96805
rtoes 33.4093
lfemur 13.2091 0.266245 -17.3908
ltibia 22.8986
lfoot -2.29359 -16.6332
ltoes 12.8063
3186
root -11.7817 17.3997 8.88169 299.82 85.2814 -61.7214
lowerback 12.6213 0.240813 -2.42919
upperback 5.53441 0.316133 1.57653
thorax -1.28977 0.205916 2.96684
lowerneck 5.02384 -0.376168 -9.27766
upperneck 1.342 -0.953758 5.29895
head -0.381267 -0.543741 3.37883
rclavicle -1.48095e-014 -1.94809e-014
rhumerus -24.2794 -6.26193 -78.688
rradius 34.2565
rwrist -9.81724
rhand -17.2692 -21.1191
rfingers 7.12502
rthumb 8.9756 -50.9081
lclavicle -1.48095e-014 -1.94809e-014
lhumerus -29.4048 11.4154 76.3591
lradius 30.3189
lwrist -2.25339
lhand -18.9998 -4.23694
lfingers 7.12502
lthumb 7.30537 25.6169
rfemur -29.377 5.2102 23.5389
rtibia 27.3641
rfoot -2.70655 -9.33652
rtoes 32.9284
lfemur 12.3974 0.818274 -16.8551
ltibia 25.3803
lfoot 0.213792 -17.2209
ltoes 11.7832
3187
root -11.5998 17.4333 8.91224 299.101 85.5909 -62.1963
lowerback 12.8537 0.269658 -2.49671
upperback 5.53464 0.344093 1.53714
thorax -1.41643 0.222675 2.9601
lowerneck 4.51179 -0.464957 -9.5455
upperneck 2.01027 -1.04684 5.844
head -0.0649318 -0.597618 3.61527
rclavicle -3.67752e-015 -8.34896e-015
rhumerus -24.2398 -7.42116 -78.4331
rradius 33.5643
rwrist -9.00388
rhand -16.9966 -21.307
rfingers 7.12502
rthumb 9.23864 -51.0846
lclavicle -3.67752e-015 -8.34896e-015
lhumerus -29.7368 11.4379 76.3228
lradius 28.5362
lwrist -1.65715
lhand -19.5514 -3.48342
lfingers 7.12502
lthumb 6.77287 26.3883
rfemur -28.81 5.18043 23.4522
rtibia 28.058
rfoot -1.66649 -8.85916
rtoes 26.4365
lfemur 11.2504 1.44278 -16.5088
ltibia 28.173
lfoot 2.79126 -17.7999
ltoes 9.93655
